<?xml version="1.0" encoding="UTF-8"?>
<svg viewBox="0 0 52.963 52.963" xmlns="http://www.w3.org/2000/svg">
 <defs>
  <linearGradient id="d" x1="-.05109" x2=".33577" y1=".085273" y2=".66667">
   <stop stop-color="#fff" offset="0"/>
   <stop stop-color="#fff" stop-opacity="0" offset="1"/>
  </linearGradient>
  <linearGradient id="c" x1="1.0037" x2=".22986" y1=".47749" y2=".55938">
   <stop stop-color="#fff" stop-opacity=".727" offset="0"/>
   <stop stop-color="#fff" offset="1"/>
  </linearGradient>
 </defs>
 <path d="m52.963 26.482c0.011051 14.633-11.848 26.502-26.482 26.502-14.633 0-26.493-11.868-26.482-26.502-0.011052-14.633 11.848-26.502 26.482-26.502 14.633 0 26.493 11.868 26.482 26.502z" fill="#006b6b" stroke-width="3.625"/>
 <path d="m50.66 26.481c0.010094 13.361-10.818 24.197-24.179 24.197s-24.189-10.836-24.179-24.197c-0.01009-13.361 10.818-24.197 24.179-24.197s24.189 10.836 24.179 24.197z" fill="#007f7f" stroke="#fff" stroke-width=".325"/>
 <g stroke-width=".616">
  <path d="m9.3745 28.995c-0.22286 0.22282-0.18092 0.57324 0.041885 0.79605l13.528 14.188 22.533-25.487c0.22286-0.22282 0.22281-0.53133 0-0.75414l-5.0277-5.0277c-0.22286-0.22284-0.58638-0.27716-0.79605-0.041916l-16.829 18.882-7.5834-7.5834c-0.22282-0.22286-0.61511-0.22286-0.83794 0l-5.0277 5.0277z" fill="url(#c)"/>
  <path d="m26.465 2.3156c-13.347 0-24.175 10.828-24.175 24.175 0 6.4126 2.6169 12.143 6.6955 16.472 2.1188-17.5 16.89-31.107 34.959-31.107 0.48721 0 0.93961 0.098969 1.422 0.11852-4.4214-5.7507-11.092-9.6581-18.901-9.6581z" fill="url(#d)"/>
 </g>
</svg>
